<!DOCTYPE svg PUBLIC "-//W3C//DTD SVG 20010904//EN" "http://www.w3.org/TR/2001/REC-SVG-20010904/DTD/svg10.dtd">
<svg version="1.0" xmlns="http://www.w3.org/2000/svg" width="1600px" height="1600px" viewBox="0 0 16000 16000" preserveAspectRatio="xMidYMid meet">
<g id="layer101" fill="#ff0000" stroke="none">
 <path d="M7835 12646 c-33 -12 -76 -31 -95 -40 -19 -10 -266 -248 -549 -530 -426 -424 -7049 -7050 -7089 -7091 -6 -8 -12 -18 -12 -24 0 -6 -3 -11 -8 -11 -7 0 -33 -49 -65 -123 -24 -54 -24 -271 0 -324 9 -21 25 -58 36 -83 15 -35 131 -156 496 -522 262 -263 482 -478 488 -478 7 0 13 -3 13 -8 0 -9 72 -45 135 -66 71 -23 225 -22 296 3 72 25 160 72 166 88 3 7 9 13 14 13 5 0 1433 1425 3174 3168 l3165 3167 3165 -3167 c1741 -1743 3169 -3168 3174 -3168 5 0 11 -6 14 -13 6 -16 94 -63 166 -88 70 -24 226 -26 297 -3 60 19 134 56 134 66 0 5 6 8 13 8 7 0 227 215 488 477 361 362 481 489 496 523 11 25 28 61 37 82 23 52 23 272 0 325 -35 80 -50 109 -67 133 -44 60 -7596 7606 -7642 7635 -84 54 -164 75 -279 74 -79 0 -114 -5 -161 -23z"/>
 </g>

</svg>