<!DOCTYPE svg PUBLIC "-//W3C//DTD SVG 20010904//EN" "http://www.w3.org/TR/2001/REC-SVG-20010904/DTD/svg10.dtd">
<svg version="1.0" xmlns="http://www.w3.org/2000/svg" width="1600px" height="1600px" viewBox="0 0 16000 16000" preserveAspectRatio="xMidYMid meet">
<g id="layer101" fill="#ffffff" stroke="none">
 <path d="M7435 15995 c-11 -2 -101 -9 -200 -15 -426 -26 -949 -122 -1445 -265 -120 -35 -161 -47 -305 -95 -203 -66 -216 -71 -247 -86 -14 -8 -35 -14 -46 -14 -12 0 -23 -4 -26 -9 -3 -5 -18 -12 -33 -16 -16 -3 -41 -12 -58 -20 -16 -7 -66 -27 -110 -45 -91 -37 -113 -46 -210 -90 -38 -18 -88 -40 -110 -50 -73 -33 -409 -201 -470 -236 -33 -18 -80 -44 -105 -56 -25 -13 -51 -29 -58 -35 -7 -7 -17 -13 -22 -13 -5 0 -26 -12 -47 -26 -21 -14 -47 -30 -58 -35 -11 -5 -32 -17 -47 -27 -39 -25 -160 -101 -183 -115 -11 -7 -22 -14 -25 -17 -14 -14 -70 -50 -79 -50 -5 0 -11 -3 -13 -7 -3 -9 -64 -53 -72 -53 -3 0 -14 -7 -23 -15 -10 -8 -49 -37 -88 -64 -38 -28 -75 -55 -82 -61 -7 -5 -17 -10 -23 -10 -5 0 -10 -4 -10 -9 0 -5 -20 -22 -45 -38 -25 -15 -45 -31 -45 -35 0 -5 -7 -8 -15 -8 -8 0 -15 -4 -15 -8 0 -5 -30 -30 -66 -57 -36 -26 -74 -56 -83 -65 -9 -9 -36 -31 -61 -50 -25 -19 -52 -41 -61 -49 -9 -9 -27 -25 -40 -36 -83 -69 -160 -135 -198 -170 -78 -70 -541 -532 -541 -539 0 -4 -11 -17 -24 -29 -13 -12 -56 -60 -96 -107 -40 -47 -77 -86 -81 -88 -5 -2 -9 -8 -9 -12 0 -5 -12 -22 -28 -38 -15 -15 -45 -51 -67 -80 -21 -29 -43 -52 -47 -52 -4 0 -8 -6 -8 -14 0 -8 -4 -16 -9 -18 -4 -2 -59 -70 -121 -153 -61 -82 -118 -158 -126 -168 -8 -9 -14 -20 -14 -23 0 -3 -13 -23 -30 -44 -16 -21 -30 -42 -30 -48 0 -6 -4 -12 -8 -14 -12 -5 -112 -153 -112 -167 0 -6 -4 -11 -8 -11 -5 0 -14 -10 -21 -22 -6 -13 -20 -36 -31 -53 -11 -16 -23 -37 -27 -45 -4 -8 -18 -31 -31 -50 -13 -19 -28 -44 -33 -55 -10 -21 -17 -32 -59 -100 -14 -22 -34 -58 -45 -80 -11 -22 -22 -42 -26 -45 -3 -3 -17 -28 -31 -56 -15 -28 -41 -78 -59 -110 -70 -129 -168 -337 -273 -579 -7 -16 -18 -41 -24 -55 -6 -14 -21 -50 -33 -80 -12 -30 -27 -68 -34 -85 -8 -16 -17 -42 -20 -58 -4 -15 -11 -30 -16 -33 -5 -3 -9 -14 -9 -26 0 -11 -6 -32 -14 -46 -15 -30 -22 -52 -73 -207 -19 -60 -42 -125 -49 -143 -8 -18 -14 -41 -14 -52 0 -11 -6 -34 -14 -52 -8 -18 -22 -62 -31 -98 -20 -79 -38 -147 -59 -221 -9 -31 -16 -64 -16 -74 0 -10 -6 -41 -14 -69 -14 -47 -22 -84 -60 -271 -25 -120 -60 -328 -90 -525 -36 -234 -41 -368 -41 -1050 0 -761 6 -864 71 -1270 49 -305 120 -637 179 -840 8 -25 21 -72 31 -105 30 -107 43 -148 93 -300 70 -211 72 -217 87 -247 8 -14 14 -35 14 -46 0 -12 4 -23 9 -26 5 -3 12 -18 16 -33 3 -16 12 -41 20 -58 7 -16 34 -82 60 -145 26 -63 61 -144 77 -180 17 -36 39 -85 50 -110 11 -25 60 -124 108 -220 101 -203 131 -259 239 -445 25 -44 51 -88 56 -97 6 -10 36 -59 68 -110 32 -51 63 -102 70 -113 7 -11 14 -22 17 -25 14 -14 50 -70 50 -79 0 -5 3 -11 8 -13 8 -4 52 -65 52 -73 0 -3 5 -11 10 -18 6 -7 33 -43 61 -82 27 -38 56 -78 64 -88 8 -9 15 -22 15 -27 0 -6 3 -10 8 -10 4 0 20 -20 35 -45 16 -25 33 -45 38 -45 5 0 9 -6 9 -14 0 -8 4 -16 9 -18 5 -1 32 -34 62 -73 29 -38 58 -75 64 -81 6 -6 28 -34 50 -62 21 -29 43 -52 47 -52 4 0 8 -5 8 -10 0 -6 10 -21 23 -33 12 -12 35 -38 51 -57 90 -112 642 -680 660 -680 4 0 17 -11 29 -24 12 -13 60 -56 107 -96 47 -40 87 -77 88 -81 2 -5 10 -9 18 -9 8 0 14 -3 14 -7 0 -5 39 -39 88 -78 48 -38 96 -78 107 -88 11 -10 32 -26 48 -35 15 -9 27 -20 27 -24 0 -4 7 -8 15 -8 8 0 15 -4 15 -9 0 -5 20 -22 45 -38 25 -15 45 -31 45 -35 0 -5 7 -8 15 -8 8 0 15 -4 15 -10 0 -5 20 -21 45 -36 25 -14 45 -30 45 -35 0 -5 5 -9 11 -9 6 0 28 -13 49 -30 21 -16 42 -30 48 -30 6 0 12 -3 14 -7 5 -11 66 -53 77 -53 5 0 11 -3 13 -7 5 -12 66 -53 78 -53 5 0 10 -4 10 -9 0 -5 14 -14 30 -21 17 -7 30 -16 30 -21 0 -5 5 -9 11 -9 5 0 40 -19 77 -43 37 -23 76 -48 87 -55 11 -6 29 -17 40 -22 11 -6 34 -19 50 -30 17 -10 53 -31 80 -45 28 -14 77 -41 110 -60 60 -33 424 -215 480 -240 17 -7 62 -28 100 -45 137 -62 233 -101 365 -150 47 -17 99 -37 115 -44 38 -16 74 -29 210 -73 61 -19 125 -42 143 -49 18 -8 41 -14 52 -14 11 0 34 -6 52 -14 18 -8 62 -22 98 -31 79 -20 147 -38 221 -59 31 -9 64 -16 74 -16 10 0 41 -6 69 -14 47 -14 84 -22 271 -60 120 -25 328 -60 525 -90 234 -36 368 -41 1050 -41 810 0 923 8 1450 102 80 14 111 20 300 59 108 23 238 55 365 90 28 8 75 21 105 30 30 8 69 20 85 25 17 6 50 16 75 23 113 33 315 102 425 144 28 11 77 29 110 42 33 12 80 31 105 42 25 11 55 24 68 29 12 5 32 13 45 18 129 52 559 261 692 337 33 18 80 44 105 56 25 13 51 29 58 36 7 6 17 12 22 12 5 0 26 12 47 26 21 14 47 30 58 35 22 11 41 22 102 62 24 15 47 27 52 27 5 0 11 3 13 8 5 11 66 52 78 52 5 0 10 4 10 9 0 5 14 14 30 21 17 7 30 16 30 21 0 5 5 9 11 9 6 0 28 13 49 30 21 17 41 30 44 30 4 0 12 5 19 10 7 6 44 33 82 61 39 27 78 56 88 64 9 8 22 15 27 15 6 0 10 4 10 9 0 5 20 22 45 38 25 15 45 31 45 36 0 4 7 7 15 7 8 0 15 4 15 8 0 5 29 30 65 56 36 26 71 53 78 60 7 6 35 29 62 51 28 22 57 46 66 55 18 17 42 38 139 119 36 30 82 72 102 93 21 21 41 38 44 38 7 0 464 456 464 464 0 3 17 23 38 44 20 20 64 69 97 107 33 39 70 80 82 92 13 12 23 27 23 33 0 5 4 10 8 10 4 0 26 23 47 52 22 28 44 56 50 62 6 6 35 43 65 81 30 39 58 72 62 73 5 2 8 10 8 18 0 8 4 14 9 14 5 0 22 20 38 45 15 25 31 45 36 45 4 0 7 7 7 15 0 8 4 15 10 15 5 0 21 20 36 45 14 25 30 45 35 45 5 0 9 5 9 11 0 6 14 28 30 49 17 21 30 42 30 48 0 6 3 12 8 14 13 6 99 133 108 160 4 10 10 18 14 18 4 0 12 10 19 23 6 12 20 36 31 52 11 17 23 37 27 45 4 8 20 34 35 56 15 23 28 47 28 53 0 6 4 11 9 11 5 0 13 10 17 23 3 12 12 29 19 37 7 8 27 42 46 75 18 33 43 78 55 100 13 22 35 65 50 95 15 30 29 57 33 60 11 9 128 252 201 415 12 28 31 70 42 95 11 25 23 54 28 65 4 11 12 31 18 45 6 14 21 50 33 80 12 30 27 69 34 85 8 17 17 42 20 58 4 15 11 30 16 33 5 3 9 14 9 26 0 11 6 32 14 46 15 30 22 52 73 207 19 61 42 125 49 143 8 18 14 41 14 52 0 11 6 34 14 52 8 18 22 62 31 98 10 36 23 85 30 110 22 77 43 162 59 230 8 36 21 94 29 130 69 301 119 651 152 1050 22 263 22 1195 0 1440 -19 208 -41 387 -60 490 -8 42 -15 86 -15 99 0 13 -6 53 -14 90 -8 36 -22 104 -31 151 -28 145 -80 368 -120 515 -7 28 -21 79 -30 115 -9 36 -23 80 -31 98 -8 18 -14 41 -14 52 0 11 -6 34 -14 52 -7 18 -30 83 -49 143 -48 147 -58 177 -68 197 -5 10 -18 46 -30 80 -12 35 -27 77 -34 93 -7 17 -27 66 -45 110 -18 44 -38 94 -46 110 -7 17 -25 57 -39 90 -15 33 -36 80 -47 105 -32 71 -233 471 -256 510 -11 19 -33 58 -47 85 -14 28 -34 64 -45 80 -11 17 -24 39 -30 50 -5 11 -16 29 -22 40 -7 11 -32 50 -55 87 -24 37 -43 72 -43 77 0 6 -4 11 -9 11 -5 0 -14 14 -21 30 -7 17 -16 30 -21 30 -5 0 -9 5 -9 10 0 12 -41 73 -52 78 -5 2 -8 8 -8 13 0 11 -42 72 -52 77 -5 2 -8 8 -8 14 0 6 -13 27 -30 48 -16 21 -30 41 -30 44 0 3 -7 14 -15 24 -9 9 -50 64 -92 122 -42 58 -81 110 -87 116 -6 6 -22 27 -36 47 -14 20 -28 37 -32 37 -5 0 -8 7 -8 15 0 8 -4 15 -8 15 -4 0 -24 21 -44 48 -35 45 -53 67 -101 122 -12 14 -37 43 -56 65 -98 118 -170 193 -411 435 -242 241 -317 313 -435 411 -22 19 -51 44 -65 56 -55 48 -77 66 -122 101 -27 20 -48 40 -48 44 0 4 -7 8 -15 8 -8 0 -15 3 -15 8 0 4 -17 18 -37 32 -20 14 -41 30 -47 35 -29 28 -136 105 -145 105 -6 0 -11 4 -11 10 0 5 -20 21 -45 36 -25 14 -45 30 -45 35 0 5 -5 9 -11 9 -6 0 -28 14 -49 30 -21 17 -42 30 -48 30 -6 0 -12 3 -14 8 -5 10 -66 52 -77 52 -5 0 -11 3 -13 8 -5 11 -66 52 -78 52 -5 0 -10 4 -10 9 0 5 -13 14 -30 21 -16 7 -30 16 -30 21 0 5 -5 9 -11 9 -5 0 -41 20 -79 45 -38 25 -72 45 -76 45 -3 0 -26 14 -51 30 -24 17 -48 30 -53 30 -5 0 -15 6 -22 13 -7 6 -33 22 -58 35 -25 12 -72 38 -105 56 -61 35 -397 203 -470 236 -22 10 -69 32 -105 48 -36 16 -105 46 -155 66 -49 21 -99 41 -110 46 -11 5 -58 23 -105 40 -142 53 -164 61 -198 76 -18 8 -41 14 -50 14 -10 0 -22 4 -28 9 -5 4 -43 18 -84 31 -41 12 -90 28 -108 36 -18 8 -41 14 -52 14 -11 0 -34 6 -52 14 -18 8 -62 22 -98 31 -79 20 -147 38 -221 59 -31 9 -64 16 -74 16 -10 0 -41 6 -69 14 -28 8 -85 22 -126 30 -41 9 -106 22 -145 30 -65 14 -140 27 -340 61 -86 15 -242 37 -395 56 -86 11 -1348 23 -1405 14z m3939 -4621 c548 -548 996 -997 996 -999 0 -2 -531 -534 -1180 -1183 -649 -649 -1180 -1185 -1180 -1192 0 -6 531 -542 1180 -1191 649 -650 1180 -1182 1180 -1184 0 -4 -1991 -1995 -1995 -1995 -2 0 -534 531 -1183 1180 -649 649 -1185 1180 -1192 1180 -6 0 -542 -531 -1191 -1180 -650 -649 -1182 -1180 -1184 -1180 -4 0 -1995 1991 -1995 1995 0 2 531 534 1180 1184 649 649 1180 1185 1180 1191 0 7 -531 543 -1180 1192 -649 649 -1180 1181 -1180 1183 0 5 1841 1845 1845 1845 3 0 36 32 75 71 63 64 72 70 88 58 9 -8 70 -67 135 -131 65 -65 119 -118 121 -118 2 0 474 -470 1050 -1045 575 -575 1051 -1045 1058 -1044 7 0 542 530 1188 1178 646 649 1178 1179 1182 1180 3 1 454 -447 1002 -995z"/>
 </g>

</svg>