<!DOCTYPE svg PUBLIC "-//W3C//DTD SVG 20010904//EN" "http://www.w3.org/TR/2001/REC-SVG-20010904/DTD/svg10.dtd">
<svg version="1.0" xmlns="http://www.w3.org/2000/svg" width="1600px" height="1600px" viewBox="0 0 16000 16000" preserveAspectRatio="xMidYMid meet">
<g id="layer101" fill="#ffffff" stroke="none">
 <path d="M7415 15995 c-11 -2 -101 -9 -200 -15 -209 -13 -484 -48 -650 -82 -27 -6 -72 -14 -100 -18 -27 -4 -70 -12 -95 -18 -25 -6 -79 -18 -120 -27 -41 -9 -101 -23 -132 -31 -32 -7 -86 -21 -120 -30 -88 -21 -168 -43 -203 -56 -16 -5 -48 -14 -71 -18 -22 -5 -51 -13 -65 -19 -13 -5 -69 -24 -124 -41 -103 -32 -240 -80 -310 -107 -22 -8 -58 -22 -80 -30 -95 -36 -122 -46 -150 -59 -16 -7 -55 -22 -85 -34 -66 -27 -140 -59 -295 -130 -100 -46 -379 -184 -385 -191 -3 -3 -27 -17 -55 -31 -27 -14 -66 -35 -85 -46 -19 -12 -55 -31 -80 -44 -25 -13 -51 -29 -58 -35 -7 -7 -17 -13 -22 -13 -5 0 -29 -13 -53 -30 -25 -16 -47 -30 -50 -30 -4 0 -25 -13 -49 -29 -119 -79 -188 -121 -197 -121 -5 0 -11 -3 -13 -7 -5 -11 -66 -53 -77 -53 -5 0 -11 -4 -13 -8 -1 -5 -41 -35 -88 -66 -47 -32 -86 -62 -88 -67 -2 -5 -8 -9 -13 -9 -6 0 -15 -5 -22 -10 -7 -6 -55 -42 -107 -81 -52 -38 -96 -74 -98 -79 -2 -6 -10 -10 -17 -10 -7 0 -15 -4 -17 -8 -1 -4 -29 -28 -60 -52 -32 -25 -58 -48 -58 -52 0 -5 -7 -8 -15 -8 -8 0 -15 -4 -15 -8 0 -4 -21 -24 -47 -45 -27 -20 -66 -52 -88 -72 -22 -20 -69 -61 -105 -93 -188 -167 -412 -388 -563 -557 -44 -49 -91 -100 -104 -112 -13 -12 -23 -25 -23 -28 0 -3 -10 -16 -23 -28 -12 -12 -43 -47 -67 -77 -69 -84 -84 -102 -101 -119 -8 -9 -37 -45 -64 -81 -27 -36 -55 -71 -61 -77 -7 -7 -22 -28 -34 -48 -12 -19 -26 -35 -31 -35 -5 0 -9 -4 -9 -10 0 -5 -6 -18 -14 -27 -42 -51 -136 -184 -136 -192 0 -5 -3 -11 -7 -13 -16 -7 -156 -215 -169 -250 -3 -10 -10 -18 -14 -18 -4 0 -13 -13 -20 -30 -7 -16 -16 -30 -21 -30 -5 0 -9 -4 -9 -9 0 -9 -69 -131 -80 -141 -3 -3 -14 -23 -25 -45 -11 -22 -23 -42 -26 -45 -7 -6 -32 -53 -49 -90 -6 -13 -15 -27 -19 -30 -8 -5 -281 -552 -281 -562 0 -6 -12 -35 -74 -173 -7 -16 -21 -50 -31 -75 -9 -25 -22 -54 -27 -64 -6 -11 -14 -31 -18 -45 -5 -14 -18 -51 -30 -81 -41 -106 -51 -137 -115 -330 -74 -222 -95 -292 -140 -460 -63 -232 -99 -390 -149 -645 -42 -218 -68 -442 -88 -760 -18 -287 -18 -1364 0 -1535 19 -189 56 -447 84 -590 6 -30 14 -77 18 -105 4 -27 12 -70 18 -95 6 -25 18 -79 27 -120 15 -72 24 -107 59 -247 32 -125 49 -189 62 -233 45 -150 75 -249 85 -275 6 -16 15 -43 19 -60 5 -16 25 -75 45 -130 20 -55 40 -111 44 -125 5 -14 14 -38 21 -55 24 -57 29 -70 50 -125 36 -90 60 -147 97 -230 9 -19 21 -48 28 -65 23 -55 289 -590 295 -595 8 -5 33 -51 50 -90 6 -13 14 -27 18 -30 4 -3 16 -23 27 -45 11 -22 22 -42 25 -45 11 -10 80 -132 80 -141 0 -5 4 -9 9 -9 5 0 14 -13 21 -30 7 -16 16 -30 20 -30 4 0 11 -8 14 -18 12 -32 154 -245 168 -250 4 -2 8 -8 8 -14 0 -6 13 -27 30 -48 16 -21 30 -43 30 -49 0 -6 4 -11 10 -11 5 0 21 -20 36 -45 14 -25 30 -45 35 -45 5 0 9 -7 9 -15 0 -8 3 -15 8 -15 4 0 20 -20 35 -45 16 -25 33 -45 38 -45 5 0 9 -7 9 -15 0 -8 4 -15 8 -15 5 0 28 -27 52 -60 24 -33 47 -60 52 -60 4 0 8 -7 8 -15 0 -8 4 -15 8 -15 5 0 22 -19 39 -42 17 -24 47 -60 67 -81 20 -21 36 -41 36 -43 0 -3 10 -15 23 -27 12 -12 53 -58 92 -102 38 -44 102 -113 142 -153 40 -40 73 -75 73 -77 0 -3 30 -33 66 -68 36 -34 98 -94 137 -132 40 -39 110 -104 157 -145 47 -41 95 -85 107 -98 12 -12 25 -22 28 -22 3 0 16 -10 28 -23 12 -13 45 -40 72 -62 28 -21 55 -44 60 -50 6 -6 42 -35 80 -64 39 -30 72 -57 73 -62 2 -5 10 -9 17 -9 7 0 15 -4 17 -9 4 -12 96 -81 108 -81 6 0 10 -4 10 -9 0 -5 20 -22 45 -38 25 -15 45 -31 45 -35 0 -5 6 -8 14 -8 8 0 16 -3 18 -7 6 -16 331 -233 347 -233 6 0 11 -4 11 -9 0 -5 13 -14 30 -21 16 -7 30 -16 30 -21 0 -5 5 -9 10 -9 6 0 29 -12 53 -27 57 -38 79 -51 97 -60 16 -7 154 -87 180 -103 8 -5 137 -70 285 -143 241 -120 323 -160 390 -187 11 -5 40 -17 65 -28 25 -10 65 -27 90 -37 25 -9 54 -22 64 -27 11 -6 31 -14 45 -18 14 -5 51 -18 81 -30 106 -41 137 -51 330 -115 222 -74 292 -95 460 -140 199 -54 293 -76 495 -119 510 -107 829 -131 1715 -131 599 0 720 5 965 41 268 39 551 90 650 116 22 6 58 14 80 18 82 15 268 64 510 136 42 12 266 85 385 124 19 7 48 18 63 26 16 8 37 14 47 14 10 0 21 4 24 9 3 5 18 12 33 16 16 3 42 12 58 20 17 7 55 22 85 34 30 12 66 27 80 33 14 6 34 14 45 18 146 57 675 311 703 337 7 7 17 13 22 13 5 0 44 20 86 45 41 25 77 45 79 45 6 0 279 163 285 170 3 4 12 10 20 14 43 20 334 216 338 227 2 5 8 9 13 9 11 0 328 236 345 256 6 8 16 14 23 14 6 0 11 4 11 8 0 5 21 24 48 43 26 18 62 48 80 66 18 18 35 33 38 33 3 0 15 10 27 23 12 13 69 66 127 118 135 121 468 454 589 589 52 58 105 115 118 127 13 12 23 24 23 27 0 3 15 20 33 38 18 18 48 54 66 81 19 26 38 47 43 47 4 0 8 5 8 11 0 7 6 17 14 23 20 17 256 334 256 345 0 5 4 11 8 13 9 3 191 270 205 299 4 8 15 26 25 41 45 69 92 150 92 158 0 5 3 10 8 12 7 3 82 125 82 134 0 2 11 21 23 42 65 102 249 469 342 677 15 33 36 80 47 105 11 25 24 55 29 68 5 12 13 32 18 45 6 12 20 47 32 77 12 30 27 69 34 85 7 17 22 58 34 93 12 34 25 70 30 80 10 20 20 49 68 197 19 61 41 126 48 145 14 39 40 129 89 305 52 183 115 463 149 655 95 532 102 625 102 1340 0 886 -25 1208 -132 1715 -45 215 -128 542 -178 700 -7 22 -21 67 -30 100 -10 33 -23 76 -30 95 -7 19 -18 51 -24 70 -7 19 -17 50 -21 69 -5 18 -13 38 -19 44 -6 6 -11 19 -11 29 0 9 -6 32 -14 50 -13 31 -28 69 -63 163 -9 22 -19 49 -24 60 -4 11 -18 45 -30 75 -11 30 -27 69 -34 85 -8 17 -22 50 -33 75 -84 196 -277 595 -299 618 -7 7 -13 17 -13 22 0 5 -20 44 -45 86 -25 41 -45 77 -45 79 0 2 -37 65 -82 140 -46 75 -88 144 -93 153 -65 108 -225 345 -237 350 -5 2 -8 8 -8 14 0 5 -6 15 -12 23 -7 7 -44 56 -82 109 -38 53 -73 96 -78 96 -4 0 -8 7 -8 15 0 8 -3 15 -7 15 -5 0 -19 16 -32 35 -13 19 -32 45 -43 57 -33 39 -51 62 -92 113 -22 28 -47 57 -55 66 -9 9 -25 27 -36 40 -77 91 -177 202 -222 247 -29 29 -53 54 -53 57 0 5 -220 225 -226 225 -2 0 -30 26 -61 58 -32 32 -94 89 -138 127 -44 38 -90 79 -102 92 -12 13 -27 23 -33 23 -5 0 -10 3 -10 8 0 4 -34 34 -75 67 -41 33 -75 63 -75 68 0 4 -5 7 -11 7 -7 0 -17 6 -23 14 -6 8 -103 82 -216 166 -113 83 -213 158 -223 166 -9 8 -20 14 -23 14 -3 0 -23 14 -44 30 -21 17 -42 30 -48 30 -6 0 -12 3 -14 8 -5 11 -66 52 -78 52 -5 0 -10 4 -10 9 0 5 -13 14 -30 21 -16 7 -30 16 -30 21 0 5 -5 9 -11 9 -5 0 -41 20 -79 45 -38 25 -73 45 -79 45 -5 0 -11 3 -13 8 -3 7 -125 82 -133 82 -3 0 -140 78 -175 100 -23 14 -488 245 -540 268 -25 10 -63 27 -85 36 -22 10 -55 24 -72 32 -77 33 -101 43 -158 65 -33 13 -64 27 -70 31 -5 4 -18 8 -30 8 -12 0 -25 4 -30 9 -13 12 -375 137 -540 186 -119 35 -246 70 -322 89 -171 43 -167 42 -398 90 -239 49 -540 94 -800 117 -116 11 -1335 23 -1390 14z m-806 -4392 c51 -17 72 -34 262 -223 194 -194 1005 -1020 1319 -1345 80 -82 196 -201 258 -263 61 -62 112 -115 112 -117 0 -2 51 -55 113 -117 62 -62 220 -225 352 -363 132 -137 284 -294 337 -348 54 -54 98 -100 98 -102 0 -2 44 -48 98 -102 53 -54 192 -197 307 -318 116 -121 254 -264 308 -318 53 -54 97 -100 97 -102 0 -2 42 -47 93 -99 105 -107 168 -173 462 -481 115 -121 241 -252 280 -292 150 -154 237 -245 410 -428 99 -104 210 -221 247 -258 37 -37 68 -70 68 -72 0 -2 31 -35 68 -72 37 -37 135 -140 217 -228 82 -88 173 -184 202 -213 29 -29 53 -54 53 -57 0 -3 24 -28 53 -57 29 -29 93 -98 142 -153 49 -55 92 -102 95 -105 18 -15 40 -85 40 -128 0 -46 -5 -58 -59 -130 -32 -43 -73 -93 -90 -111 -17 -17 -31 -34 -31 -36 0 -7 -339 -345 -345 -345 -4 0 -18 -13 -33 -28 -15 -16 -47 -43 -72 -62 -25 -18 -50 -38 -55 -44 -17 -18 -55 -37 -104 -52 -55 -16 -103 -6 -169 38 -24 15 -47 28 -53 28 -5 0 -9 4 -9 8 0 5 -21 24 -47 43 -27 18 -63 48 -81 66 -18 18 -36 33 -40 33 -4 0 -259 254 -567 564 -598 603 -658 663 -1005 1026 -124 129 -269 279 -322 333 -54 54 -98 100 -98 102 0 2 -44 48 -98 102 -54 54 -192 197 -307 318 -115 121 -254 264 -307 318 -54 54 -98 100 -98 102 0 2 -44 48 -98 102 -53 54 -203 208 -332 343 -129 135 -297 307 -372 383 -76 76 -138 140 -138 142 0 5 -793 809 -954 968 -83 82 -165 155 -183 163 -41 18 -104 18 -146 0 -36 -15 -544 -525 -822 -826 -99 -107 -203 -217 -230 -244 -28 -28 -117 -124 -199 -214 -82 -90 -174 -190 -205 -222 -31 -32 -123 -130 -206 -217 -82 -87 -242 -250 -355 -363 -191 -192 -209 -207 -262 -223 -52 -16 -59 -16 -105 -1 -44 15 -101 42 -113 54 -3 3 -21 16 -40 29 -54 38 -78 61 -312 292 -120 118 -218 221 -218 227 0 7 -4 12 -10 12 -5 0 -22 21 -37 48 -15 26 -30 49 -33 52 -10 9 -40 105 -40 127 0 23 29 104 40 113 3 3 23 28 45 55 21 28 52 62 67 77 15 15 28 30 28 33 0 3 10 16 23 28 12 12 49 54 82 92 33 39 71 82 85 97 56 59 102 110 171 189 40 46 90 101 111 121 21 21 38 40 38 43 0 3 10 16 23 28 13 12 70 74 127 137 57 63 115 127 129 142 37 38 87 92 203 220 56 62 119 130 140 150 21 21 38 40 38 43 0 3 17 22 38 43 21 20 85 89 142 152 57 63 122 134 144 157 37 37 81 84 311 333 38 41 86 92 107 112 21 21 38 40 38 43 0 2 24 28 53 57 29 29 113 118 187 198 74 80 158 169 187 198 29 29 53 54 53 57 0 2 115 120 255 263 222 225 260 260 302 274 63 21 76 21 142 1z"/>
 </g>

</svg>