<!DOCTYPE svg PUBLIC "-//W3C//DTD SVG 20010904//EN" "http://www.w3.org/TR/2001/REC-SVG-20010904/DTD/svg10.dtd">
<svg version="1.0" xmlns="http://www.w3.org/2000/svg" width="670px" height="164px" viewBox="0 0 6700 1640" preserveAspectRatio="xMidYMid meet">
<g id="layer101" fill="#fefefe" stroke="none">
 <path d="M708 1438 c8 -39 7 -191 -3 -233 -10 -44 -26 -77 -53 -107 -22 -24 -29 -26 -86 -22 -56 3 -59 3 -36 -10 14 -8 28 -12 32 -10 5 3 13 2 18 -1 6 -4 -11 -29 -40 -58 -47 -49 -76 -103 -68 -128 2 -6 18 12 36 39 27 42 97 102 119 102 12 0 113 73 113 82 0 4 5 8 10 8 19 0 -1 -404 -25 -505 l-7 -30 22 30 c33 47 60 102 60 125 0 11 3 20 8 20 11 0 42 -59 42 -81 0 -10 5 -19 11 -19 7 0 8 7 4 18 -3 9 -9 31 -12 47 -3 17 -10 35 -15 41 -10 14 -12 54 -3 109 6 39 11 104 14 158 1 32 18 35 46 7 11 -11 43 -38 70 -59 34 -26 59 -56 75 -90 16 -35 26 -47 32 -39 10 16 1 45 -24 81 -26 36 -19 42 32 29 22 -5 40 -8 40 -7 0 7 -61 34 -92 40 -57 12 -105 73 -123 155 -13 56 -7 222 8 270 3 8 8 27 11 43 l6 27 -115 0 -114 0 7 -32z"/>
 <path d="M541 1380 c-10 -5 -3 -19 24 -49 21 -23 41 -39 44 -36 3 4 -2 11 -12 16 -9 6 -17 15 -17 21 0 6 11 1 25 -12 30 -28 40 -22 24 12 -13 29 -70 60 -88 48z"/>
 <path d="M1010 1310 c-11 -11 -20 -32 -20 -46 l0 -27 21 27 c12 15 24 24 27 21 4 -3 0 -10 -8 -15 -8 -5 -11 -12 -7 -17 14 -13 41 13 48 45 6 29 4 32 -17 32 -13 0 -33 -9 -44 -20z"/>
 <path d="M2377 1280 c-4 -14 1 -25 14 -33 23 -14 24 -30 4 -47 -17 -14 -21 -64 -4 -58 6 2 10 8 10 13 0 15 41 55 56 55 8 0 13 -13 13 -35 0 -25 4 -35 16 -35 11 0 15 8 14 28 -1 15 -2 31 -1 36 2 14 51 -35 51 -51 0 -7 7 -13 15 -13 24 0 19 55 -7 72 l-22 15 22 12 c26 14 31 61 7 61 -8 0 -15 -6 -15 -13 0 -16 -50 -65 -51 -51 -1 5 -2 20 -2 34 -1 14 -9 26 -18 28 -12 2 -15 -4 -11 -28 4 -25 1 -30 -16 -30 -22 0 -55 37 -46 52 3 4 -1 8 -9 8 -8 0 -17 -9 -20 -20z"/>
 <path d="M2680 1220 c0 -60 3 -80 13 -80 10 0 13 14 9 55 -3 33 0 55 6 55 5 0 28 -25 51 -55 23 -30 46 -55 51 -55 4 0 10 36 12 80 2 57 0 80 -9 80 -8 0 -13 -21 -15 -57 l-3 -58 -38 58 c-25 37 -45 57 -58 57 -17 0 -19 -7 -19 -80z"/>
 <path d="M2988 1235 l4 -65 -36 0 c-25 0 -36 -4 -36 -15 0 -12 15 -15 75 -15 58 0 75 3 75 14 0 8 -12 16 -27 18 -25 3 -26 6 -27 63 -1 44 -5 60 -16 63 -12 2 -14 -9 -12 -63z"/>
 <path d="M3167 1293 c-4 -3 -7 -39 -7 -80 0 -58 3 -73 15 -73 9 0 15 9 15 25 0 24 3 25 59 25 57 0 59 1 65 31 3 17 3 42 0 55 -6 22 -11 24 -73 24 -37 0 -71 -3 -74 -7z m113 -45 c0 -26 -3 -28 -45 -28 -43 0 -45 1 -45 29 0 27 2 28 45 27 42 -1 45 -3 45 -28z"/>
 <path d="M3590 1230 c0 -38 0 -73 0 -77 0 -5 30 -8 68 -8 l67 0 2 78 2 77 -69 0 -70 0 0 -70z m115 29 c0 -10 -16 -15 -47 -17 -36 -2 -48 0 -48 11 0 21 6 23 52 21 29 -1 43 -6 43 -15z m0 -69 c0 -11 -13 -16 -47 -18 -43 -3 -48 -1 -48 18 0 19 5 21 48 18 34 -2 47 -7 47 -18z"/>
 <path d="M4007 1293 c-14 -13 -7 -33 11 -33 10 0 22 3 25 7 4 3 24 6 45 6 30 0 37 -3 37 -19 0 -15 -6 -18 -32 -16 -24 3 -33 -1 -33 -12 0 -9 12 -16 33 -18 20 -2 32 -8 32 -18 0 -11 -13 -15 -55 -16 -74 -2 -74 -2 -60 -19 15 -17 125 -21 135 -5 4 6 7 42 8 80 l2 70 -71 0 c-39 0 -74 -3 -77 -7z"/>
 <path d="M4260 1220 c0 -64 3 -80 15 -80 10 0 15 11 15 35 0 30 3 35 23 35 24 0 67 -37 67 -58 0 -7 7 -12 15 -12 24 0 19 55 -7 72 l-22 15 22 12 c26 14 31 61 7 61 -8 0 -15 -6 -15 -13 0 -22 -34 -47 -63 -47 -23 0 -27 4 -27 30 0 20 -5 30 -15 30 -12 0 -15 -16 -15 -80z"/>
 <path d="M4514 1286 c-3 -7 -4 -42 -2 -77 l3 -64 58 -3 c79 -4 87 5 87 89 l0 69 -70 0 c-50 0 -72 -4 -76 -14z m111 -62 l0 -49 -42 -3 -43 -3 0 49 c0 27 2 51 4 53 2 2 22 4 43 3 l38 -1 0 -49z"/>
 <path d="M4760 1248 c0 -70 34 -108 96 -108 l42 0 4 80 c2 57 0 80 -9 80 -8 0 -13 -22 -15 -62 -3 -57 -5 -63 -26 -66 -15 -2 -34 5 -49 20 -20 19 -24 31 -21 66 2 29 -1 42 -9 42 -9 0 -13 -17 -13 -52z"/>
 <path d="M5014 1286 c-3 -7 -4 -42 -2 -77 l3 -64 58 -3 c79 -4 87 5 87 89 l0 69 -70 0 c-50 0 -72 -4 -76 -14z m111 -62 l0 -49 -42 -3 -43 -3 0 49 c0 27 2 51 4 53 2 2 22 4 43 3 l38 -1 0 -49z"/>
 <path d="M5260 1220 l0 -81 73 3 c85 4 96 21 17 28 l-55 5 -3 63 c-2 46 -7 62 -17 62 -12 0 -15 -17 -15 -80z"/>
 <path d="M5500 1236 c0 -35 -3 -71 -6 -80 -4 -11 -1 -16 10 -16 13 0 16 11 16 50 0 28 4 50 9 50 5 0 26 -22 46 -50 53 -73 65 -67 65 31 0 60 -3 80 -12 76 -9 -3 -13 -22 -12 -56 1 -28 1 -51 -1 -51 -1 0 -21 25 -44 55 -56 75 -71 73 -71 -9z"/>
 <path d="M5750 1220 c0 -67 3 -80 16 -80 14 0 16 9 12 55 -3 30 -1 55 2 55 4 0 26 -25 49 -55 23 -30 47 -55 54 -55 8 0 12 24 12 80 0 56 -4 80 -12 80 -8 0 -13 -21 -15 -56 l-3 -56 -40 56 c-22 31 -48 56 -57 56 -16 0 -18 -10 -18 -80z"/>
 <path d="M343 1265 c-18 -8 -33 -16 -33 -19 0 -2 16 -13 36 -25 38 -23 80 -29 68 -10 -5 9 4 10 31 5 45 -9 40 4 -16 39 -45 29 -44 29 -86 10z"/>
 <path d="M1148 1224 c-16 -8 -28 -16 -28 -18 0 -2 12 -1 28 1 24 3 25 2 9 -9 -54 -38 -54 -40 -2 -34 51 6 75 24 75 58 0 23 -43 24 -82 2z"/>
 <path d="M265 1144 c-40 -44 -35 -59 23 -58 40 0 111 42 91 55 -8 4 -7 8 2 11 22 8 7 16 -39 24 -39 6 -44 4 -77 -32z m75 -14 c0 -5 -7 -10 -16 -10 -8 0 -12 5 -9 10 3 6 10 10 16 10 5 0 9 -4 9 -10z"/>
 <path d="M1183 1132 c-24 -9 -43 -19 -43 -23 0 -3 27 -12 60 -18 33 -7 60 -17 60 -23 0 -7 -12 -8 -32 -4 -32 6 -32 6 -12 -8 14 -10 44 -15 87 -14 l66 1 -17 29 c-19 33 -64 64 -102 71 -14 3 -44 -2 -67 -11z"/>
 <path d="M207 1022 c-20 -9 -36 -21 -34 -26 6 -19 59 -25 88 -11 44 23 47 37 5 30 -40 -8 -48 1 -13 15 12 5 15 9 7 9 -8 0 -32 -8 -53 -17z"/>
 <path d="M1680 923 c0 -7 14 -16 32 -21 34 -9 62 -56 125 -212 6 -14 16 -38 23 -55 35 -82 61 -146 70 -170 10 -28 24 -62 49 -117 17 -38 27 -49 53 -56 l33 -8 22 70 c12 39 26 80 31 91 5 11 17 47 27 80 9 33 26 79 36 102 11 24 26 69 35 102 20 78 60 150 96 170 53 30 33 37 -107 37 -103 0 -135 -3 -135 -13 0 -7 11 -13 25 -13 30 0 51 -40 36 -68 -5 -9 -14 -43 -20 -74 -7 -31 -18 -61 -26 -68 -8 -6 -45 -10 -95 -8 -75 3 -82 5 -95 28 -28 52 -43 96 -47 135 -3 38 -2 39 35 48 20 5 37 15 37 21 0 10 -31 13 -120 13 -91 -1 -120 -4 -120 -14z m385 -282 c3 -5 -1 -27 -8 -48 -8 -21 -22 -64 -32 -95 -19 -60 -28 -65 -40 -21 -3 15 -15 45 -25 66 -11 22 -22 55 -26 74 l-6 33 65 0 c36 0 68 -4 72 -9z"/>
 <path d="M2390 924 c0 -8 9 -14 20 -14 32 0 49 -49 55 -157 4 -54 8 -132 10 -173 13 -215 14 -199 -13 -220 -14 -11 -31 -20 -38 -20 -8 0 -14 -9 -14 -20 0 -18 7 -20 84 -20 l83 0 33 67 c18 38 66 134 106 214 41 81 74 153 74 162 0 9 4 18 8 21 8 5 18 -13 86 -159 75 -159 94 -201 116 -252 l23 -53 89 3 c71 2 88 5 86 17 -2 8 -17 18 -34 23 -43 12 -53 39 -48 133 2 43 6 150 8 238 5 171 13 196 63 196 14 0 23 6 23 15 0 13 -22 15 -136 15 -121 0 -135 -2 -132 -17 2 -9 13 -17 25 -18 13 -1 26 -5 30 -9 10 -9 21 -406 12 -406 -4 0 -19 26 -34 58 -15 31 -51 107 -80 167 -29 61 -64 136 -79 168 -15 33 -32 57 -41 57 -9 0 -29 -31 -51 -77 -20 -43 -68 -142 -108 -220 l-71 -141 -11 166 c-13 192 -8 227 38 236 16 3 28 12 28 21 0 13 -16 15 -105 14 -81 -1 -105 -5 -105 -15z"/>
 <path d="M3270 923 c0 -7 13 -16 28 -19 29 -6 82 -72 82 -102 0 -8 6 -26 14 -40 7 -15 19 -40 26 -57 7 -16 18 -43 25 -60 7 -16 18 -43 25 -60 12 -30 27 -65 50 -120 7 -16 16 -37 20 -45 4 -9 10 -29 14 -45 10 -43 36 -74 72 -84 30 -8 32 -7 38 21 3 16 13 44 21 61 8 18 31 86 51 152 19 66 41 134 48 150 7 17 23 62 35 102 16 54 30 79 57 102 19 17 39 31 44 31 6 0 10 6 10 13 0 10 -32 13 -135 13 -103 0 -135 -3 -135 -13 0 -7 6 -13 14 -13 8 0 24 -8 37 -18 22 -18 22 -20 7 -68 -9 -27 -19 -62 -23 -79 -11 -50 -21 -55 -105 -55 -89 0 -110 5 -110 29 0 9 -6 27 -13 41 -18 33 -39 119 -32 129 2 5 18 11 35 14 16 4 30 13 30 20 0 10 -25 13 -115 13 -90 0 -115 -3 -115 -13z m380 -298 c0 -13 -6 -42 -14 -62 -8 -21 -21 -60 -29 -88 -12 -40 -16 -46 -22 -30 -3 11 -11 28 -16 37 -5 10 -9 23 -9 29 0 11 -22 67 -41 101 -17 33 -10 38 61 38 68 0 70 -1 70 -25z"/>
 <path d="M3980 925 c0 -9 13 -18 31 -22 17 -3 32 -11 35 -17 8 -25 11 -483 2 -505 -11 -29 -38 -52 -55 -46 -7 2 -13 -2 -13 -9 0 -21 34 -26 194 -26 134 0 153 2 194 23 66 32 94 80 89 149 -7 90 -43 144 -124 187 -13 6 -53 13 -90 15 l-68 3 -3 81 c-3 93 15 152 46 152 11 0 22 7 26 15 5 13 -14 15 -129 15 -114 0 -135 -2 -135 -15z m277 -290 c109 -25 109 -267 0 -281 -12 -1 -37 -6 -54 -10 l-33 -6 0 155 0 155 28 -3 c15 -1 41 -6 59 -10z"/>
 <path d="M4540 923 c0 -7 6 -13 13 -13 20 0 40 -26 77 -100 17 -36 36 -73 41 -82 5 -10 9 -23 9 -28 0 -6 12 -37 26 -68 14 -31 30 -68 36 -82 5 -14 16 -38 23 -55 7 -16 17 -41 23 -55 5 -14 17 -41 26 -62 9 -20 16 -42 16 -50 0 -12 59 -48 79 -48 5 0 14 21 21 47 18 72 72 237 80 248 10 14 60 167 60 184 0 20 41 102 64 129 11 12 25 22 33 22 7 0 13 6 13 13 0 9 -34 12 -135 13 -100 0 -135 -3 -135 -12 0 -6 16 -15 36 -19 l36 -6 -7 -57 c-4 -31 -15 -77 -24 -102 l-17 -45 -94 0 -95 0 -16 45 c-9 25 -18 52 -22 60 -21 56 -13 113 16 109 25 -3 37 1 37 14 0 11 -25 14 -110 13 -83 0 -110 -3 -110 -13z m380 -282 c0 -6 -4 -12 -9 -15 -5 -4 -12 -25 -16 -49 -4 -23 -11 -46 -15 -52 -4 -5 -11 -25 -15 -42 -7 -36 -22 -43 -31 -15 -3 9 -10 25 -15 34 -5 10 -9 23 -9 30 0 7 -6 25 -14 39 -7 14 -16 37 -20 52 l-6 27 75 0 c41 0 75 -4 75 -9z"/>
 <path d="M5240 925 c0 -9 12 -18 29 -21 21 -4 31 -14 36 -33 9 -35 6 -461 -4 -497 -5 -22 -14 -30 -34 -32 -19 -2 -27 -9 -27 -23 0 -19 7 -19 132 -17 117 3 133 5 136 21 3 12 -3 17 -20 17 -34 0 -55 20 -62 59 -7 40 3 113 15 105 5 -3 9 0 9 5 0 6 -4 11 -10 11 -16 0 -12 100 4 106 18 7 89 -17 146 -50 59 -34 96 -33 132 1 l28 27 0 -113 c0 -129 -8 -151 -51 -151 -24 0 -30 -4 -27 -17 3 -16 19 -18 136 -21 124 -2 132 -1 132 16 0 13 -9 21 -29 25 -16 3 -32 14 -35 24 -12 30 -8 500 4 523 6 12 21 20 35 20 16 0 25 6 25 15 0 13 -22 15 -135 15 -111 0 -135 -3 -135 -15 0 -8 14 -17 34 -21 19 -3 36 -11 39 -17 2 -7 5 -57 6 -112 1 -54 5 -103 7 -107 9 -14 -9 -8 -29 10 -19 17 -19 16 -6 -6 31 -50 -27 -46 -147 10 -31 15 -92 14 -107 -1 -24 -24 -35 -10 -42 54 -5 39 -3 83 5 114 10 45 15 50 46 55 20 4 34 13 34 21 0 12 -24 15 -135 15 -114 0 -135 -2 -135 -15z"/>
 <path d="M6172 928 c3 -7 14 -14 26 -16 12 -2 27 -12 33 -23 6 -12 11 -121 12 -277 l2 -257 -50 2 c-27 1 -55 2 -62 2 -6 1 -27 23 -47 50 -51 70 -90 80 -61 16 7 -17 19 -51 26 -78 13 -44 30 -59 44 -38 3 6 13 10 23 11 197 12 303 10 352 -4 32 -10 58 -12 63 -7 5 5 20 40 33 77 18 52 21 70 11 76 -14 9 -22 2 -46 -43 -25 -46 -65 -66 -123 -61 l-48 4 0 238 c0 284 2 295 43 306 17 5 32 15 35 22 3 9 -29 12 -133 12 -105 0 -136 -3 -133 -12z"/>
 <path d="M1135 920 c3 -5 8 -10 11 -10 3 0 2 5 -1 10 -3 6 -8 10 -11 10 -3 0 -2 -4 1 -10z"/>
 <path d="M1256 905 c-11 -8 -18 -16 -15 -18 2 -2 21 -14 41 -26 35 -21 38 -21 63 -5 33 21 32 29 -7 48 -38 20 -57 20 -82 1z m54 -15 c0 -5 -9 -10 -19 -10 -11 0 -23 5 -26 10 -4 6 5 10 19 10 14 0 26 -4 26 -10z"/>
 <path d="M1257 808 c3 -18 17 -50 30 -70 20 -33 29 -38 59 -38 29 0 35 3 30 16 -3 9 -6 24 -6 34 0 18 -69 94 -77 86 -3 -2 5 -14 16 -25 21 -21 28 -41 14 -41 -5 1 -17 15 -28 32 -29 45 -46 48 -38 6z"/>
 <path d="M122 797 l-23 -13 23 -21 c26 -23 105 -43 92 -22 -5 8 0 10 19 7 23 -4 25 -3 16 13 -24 45 -81 61 -127 36z m72 -43 c5 -14 4 -15 -9 -4 -17 14 -19 20 -6 20 5 0 12 -7 15 -16z"/>
 <path d="M1065 800 c-3 -5 -1 -10 4 -10 6 0 11 5 11 10 0 6 -2 10 -4 10 -3 0 -8 -4 -11 -10z"/>
 <path d="M193 680 c-21 -13 -35 -31 -42 -57 -15 -51 -14 -52 12 -49 47 7 76 25 82 53 4 15 10 38 15 51 6 12 6 22 1 22 -5 0 -11 -7 -15 -15 -3 -8 -11 -15 -17 -15 -8 0 -8 4 1 15 17 21 1 19 -37 -5z m9 -42 c-7 -7 -12 -8 -12 -2 0 14 12 26 19 19 2 -3 -1 -11 -7 -17z"/>
 <path d="M1200 584 c0 -5 19 -20 43 -34 32 -18 38 -25 24 -28 -10 -2 -27 4 -38 14 -10 9 -22 15 -25 12 -8 -9 48 -46 82 -54 16 -4 35 -11 42 -17 29 -23 39 46 11 79 -5 6 -28 15 -52 18 -23 4 -52 9 -64 13 -13 3 -23 1 -23 -3z"/>
 <path d="M270 520 c-68 -23 -88 -46 -82 -93 3 -30 7 -34 21 -27 9 5 33 16 53 24 20 8 41 24 48 35 13 25 3 27 -27 6 -12 -8 -24 -12 -26 -8 -3 5 15 22 39 38 40 28 55 45 37 45 -5 -1 -33 -9 -63 -20z"/>
 <path d="M360 446 c0 -27 -16 -43 -23 -24 -9 26 -17 0 -17 -58 -1 -103 -3 -97 31 -73 31 22 59 67 59 94 0 23 -30 85 -41 85 -5 0 -9 -11 -9 -24z m-10 -66 c0 -5 -4 -10 -10 -10 -5 0 -10 5 -10 10 0 6 5 10 10 10 6 0 10 -4 10 -10z"/>
 <path d="M1106 423 c-10 -11 -7 -19 20 -48 14 -15 22 -30 19 -33 -4 -4 -15 4 -25 18 -10 14 -21 22 -24 20 -7 -8 34 -70 46 -70 5 0 23 -9 38 -20 25 -17 29 -18 34 -4 18 46 -3 94 -52 119 -51 26 -48 25 -56 18z"/>
 <path d="M1008 348 c-37 -49 -40 -69 -17 -107 l20 -33 25 23 c25 23 37 98 13 83 -8 -5 -10 0 -6 17 11 44 -7 53 -35 17z"/>
 <path d="M494 326 c-26 -12 -43 -38 -44 -67 0 -15 84 11 104 31 11 13 14 19 6 14 -13 -6 -13 -5 -2 8 10 13 10 17 -4 22 -21 8 -24 8 -60 -8z m46 -26 c0 -5 -7 -10 -16 -10 -8 0 -12 5 -9 10 3 6 10 10 16 10 5 0 9 -4 9 -10z"/>
 <path d="M640 292 c0 -6 -7 -12 -15 -12 -8 0 -15 -8 -15 -18 0 -10 -3 -22 -7 -25 -13 -14 -8 -68 9 -90 l17 -22 20 20 c28 28 32 83 9 125 -10 19 -18 29 -18 22z m0 -72 c0 -5 -4 -10 -10 -10 -5 0 -10 5 -10 10 0 6 5 10 10 10 6 0 10 -4 10 -10z"/>
 <path d="M844 278 c20 -28 21 -44 3 -29 -8 6 -16 8 -20 5 -10 -10 3 -32 30 -49 21 -14 27 -15 34 -4 15 24 10 49 -16 74 -31 31 -52 33 -31 3z"/>
 <path d="M708 265 c26 -33 29 -52 5 -35 -10 8 -1 -3 20 -23 21 -21 40 -37 43 -37 2 0 4 17 4 39 0 41 -17 59 -69 76 l-24 7 21 -27z"/>
 </g>

</svg>