<!DOCTYPE svg PUBLIC "-//W3C//DTD SVG 20010904//EN" "http://www.w3.org/TR/2001/REC-SVG-20010904/DTD/svg10.dtd">
<svg version="1.0" xmlns="http://www.w3.org/2000/svg" width="158px" height="164px" viewBox="0 0 1580 1640" preserveAspectRatio="xMidYMid meet">
<g id="layer101" fill="#fefefe" stroke="none">
 <path d="M708 1438 c12 -56 6 -190 -11 -249 -9 -31 -28 -68 -41 -82 -22 -24 -32 -27 -91 -27 -75 0 -87 -15 -19 -25 l46 -7 -40 -34 c-44 -37 -82 -106 -82 -145 1 -22 3 -20 20 12 24 46 72 87 158 138 38 22 74 47 82 55 7 9 17 16 22 16 17 0 -8 -429 -29 -495 -13 -44 28 8 61 78 l34 70 18 -52 c10 -28 22 -51 27 -51 8 0 2 33 -19 101 -12 38 -13 63 -4 130 5 46 10 103 10 126 0 24 2 43 6 43 10 0 142 -110 163 -136 11 -14 26 -41 33 -60 6 -19 16 -34 20 -34 14 0 8 44 -12 88 -19 42 -19 42 1 42 11 0 35 -7 55 -15 19 -8 32 -10 29 -5 -9 15 -75 46 -112 54 -41 9 -108 82 -122 132 -19 67 -10 263 15 347 5 15 -5 17 -110 17 l-115 0 7 -32z"/>
 <path d="M543 1383 c-18 -7 9 -55 43 -78 26 -17 27 -17 20 1 -7 17 -6 17 14 -1 28 -26 36 -12 14 26 -19 33 -68 60 -91 52z"/>
 <path d="M1017 1318 c-9 -7 -19 -29 -22 -48 -3 -19 -3 -29 1 -22 3 6 10 12 15 12 6 0 7 -4 4 -10 -12 -20 16 -9 40 15 33 32 33 65 2 65 -13 0 -31 -6 -40 -12z"/>
 <path d="M343 1265 c-18 -8 -33 -16 -33 -19 0 -2 15 -14 34 -25 36 -22 92 -29 80 -10 -4 8 4 9 27 4 l34 -7 -20 22 c-20 22 -67 50 -82 50 -4 -1 -23 -7 -40 -15z"/>
 <path d="M1184 1243 c-17 -2 -42 -15 -55 -29 -21 -23 -22 -24 -4 -19 16 6 15 3 -5 -14 l-25 -21 48 0 c34 0 53 6 67 20 19 19 29 72 13 68 -5 0 -22 -3 -39 -5z"/>
 <path d="M276 1159 c-14 -11 -31 -29 -36 -40 -9 -16 -6 -21 17 -30 35 -13 92 2 119 33 17 19 17 21 2 15 -10 -4 -18 -2 -18 3 0 6 7 10 15 10 27 0 15 17 -16 24 -47 9 -54 8 -83 -15z"/>
 <path d="M1185 1135 c-22 -8 -41 -15 -42 -15 -2 0 -3 -4 -3 -9 0 -5 17 -12 38 -16 53 -9 76 -25 37 -25 l-30 -1 25 -14 c15 -8 53 -14 93 -15 l68 0 -18 31 c-36 60 -105 87 -168 64z"/>
 <path d="M200 1023 c-14 -9 -27 -18 -30 -21 -9 -7 34 -32 56 -32 28 0 89 49 62 50 -10 0 -18 5 -18 10 0 16 -43 12 -70 -7z"/>
 <path d="M1269 913 c-1 -5 -1 -12 0 -17 1 -5 -5 -6 -14 -3 -24 10 -17 -6 12 -27 32 -23 78 -25 100 -3 14 14 13 17 -18 36 -34 21 -78 28 -80 14z"/>
 <path d="M1257 808 c13 -70 44 -108 88 -108 17 0 34 3 37 6 11 11 -26 86 -55 110 -34 28 -49 24 -22 -6 10 -11 15 -20 10 -20 -4 0 -16 11 -27 25 -27 34 -39 31 -31 -7z"/>
 <path d="M117 799 c-15 -9 -16 -13 -6 -25 27 -33 109 -59 109 -35 0 5 10 7 21 4 19 -5 20 -4 10 15 -25 46 -90 66 -134 41z"/>
 <path d="M198 684 c-50 -26 -79 -114 -38 -114 55 0 100 52 100 114 0 20 0 20 -16 -2 -8 -12 -20 -22 -26 -22 -6 0 -6 6 2 15 18 22 9 25 -22 9z"/>
 <path d="M1200 583 c0 -5 14 -17 30 -28 16 -11 30 -24 30 -29 0 -4 -11 -1 -25 8 -35 23 -42 20 -15 -9 29 -30 121 -60 132 -42 13 21 9 53 -11 71 -13 12 -101 35 -138 36 -2 0 -3 -3 -3 -7z"/>
 <path d="M280 529 c-54 -10 -100 -55 -100 -97 0 -35 7 -43 29 -32 9 4 31 14 49 20 18 7 42 26 53 41 20 29 14 40 -9 17 -8 -8 -12 -9 -12 -1 0 6 11 20 25 31 25 20 32 33 18 31 -5 -1 -28 -5 -53 -10z"/>
 <path d="M354 438 c-4 -24 -9 -35 -12 -25 -6 28 -19 19 -26 -18 -8 -40 2 -125 14 -125 14 0 70 70 76 96 7 26 -21 114 -36 114 -5 0 -12 -19 -16 -42z"/>
 <path d="M1090 424 c0 -3 12 -22 27 -42 20 -26 22 -32 7 -19 -31 26 -37 21 -17 -14 18 -30 96 -82 107 -71 10 9 7 72 -5 94 -15 27 -119 74 -119 52z"/>
 <path d="M1018 363 c-43 -45 -52 -79 -31 -121 19 -38 43 -54 43 -29 0 8 7 20 15 27 19 16 30 77 17 93 -6 6 -12 22 -14 35 l-3 24 -27 -29z"/>
 <path d="M476 319 c-14 -11 -26 -31 -26 -43 0 -22 3 -23 41 -16 23 4 51 18 63 30 11 13 14 19 6 15 -10 -6 -8 -1 4 13 l19 22 -40 0 c-26 0 -50 -8 -67 -21z"/>
 <path d="M640 280 c0 -17 -3 -21 -9 -12 -6 10 -10 10 -20 -2 -22 -26 -24 -80 -6 -116 l18 -34 28 32 c34 38 36 72 9 122 -18 33 -19 33 -20 10z"/>
 <path d="M836 289 c3 -6 0 -15 -7 -20 -12 -7 -12 -13 1 -35 21 -38 48 -53 60 -34 16 25 11 50 -15 75 -24 25 -52 35 -39 14z"/>
 <path d="M705 263 c15 -22 15 -25 2 -20 -26 10 -9 -19 28 -47 19 -15 36 -26 39 -26 3 0 6 18 6 39 0 31 -6 44 -26 60 -15 12 -36 21 -46 21 -20 0 -20 -1 -3 -27z"/>
 </g>

</svg>